<svg width="60" height="16" viewBox="0 0 60 16" fill="none" xmlns="http://www.w3.org/2000/svg">
<g clip-path="url(#clip0_8_71)">
<path d="M25.904 10.4139L25.257 12.4139C25.2484 12.446 25.2289 12.4741 25.202 12.4936C25.175 12.5131 25.1422 12.5227 25.109 12.5209H23.545C23.451 12.5209 23.423 12.4679 23.438 12.3889L26.138 4.6089C26.2275 4.34382 26.2721 4.06566 26.27 3.7859C26.2686 3.76277 26.2763 3.74001 26.2914 3.72245C26.3065 3.7049 26.3279 3.69394 26.351 3.69189H28.508C28.575 3.69189 28.602 3.7049 28.616 3.7729L31.676 12.4019C31.702 12.4689 31.689 12.5219 31.609 12.5219H29.859C29.827 12.5273 29.794 12.5207 29.7665 12.5034C29.739 12.486 29.7189 12.4592 29.71 12.4279L29.022 10.4189L25.904 10.4139ZM28.522 8.7279C28.258 7.8379 27.714 6.2059 27.464 5.2489H27.451C27.235 6.1489 26.751 7.6289 26.393 8.7279H28.522Z" fill="black"/>
<path d="M31.888 9.22806C31.8902 8.73178 31.9958 8.24142 32.198 7.78821C32.4002 7.335 32.6947 6.92889 33.0625 6.59576C33.4304 6.26262 33.8636 6.00977 34.3345 5.85332C34.8055 5.69687 35.3039 5.64024 35.798 5.68706C35.905 5.68706 36.04 5.70206 36.242 5.71506V3.05206C36.2405 3.03936 36.242 3.02651 36.2462 3.01446C36.2504 3.0024 36.2573 2.99145 36.2663 2.98242C36.2754 2.97338 36.2863 2.9665 36.2984 2.96229C36.3104 2.95807 36.3233 2.95662 36.336 2.95806H38.036C38.103 2.95806 38.117 2.98406 38.117 3.03906V11.0081C38.1134 11.3369 38.1315 11.6656 38.171 11.9921C38.171 12.0591 38.158 12.0861 38.077 12.1141C37.2364 12.4701 36.3328 12.6531 35.42 12.6521C34.9542 12.6975 34.484 12.641 34.0422 12.4865C33.6004 12.3321 33.1975 12.0833 32.8615 11.7575C32.5254 11.4318 32.2643 11.0368 32.0962 10.6C31.9281 10.1632 31.857 9.69506 31.888 9.22806ZM36.243 7.31306C36.0818 7.26039 35.9123 7.23768 35.743 7.24606C35.4885 7.22758 35.2331 7.2634 34.9936 7.35113C34.7541 7.43887 34.5359 7.57651 34.3536 7.75493C34.1713 7.93336 34.029 8.1485 33.9361 8.38609C33.8433 8.62368 33.802 8.8783 33.815 9.13306C33.7803 9.38214 33.8018 9.63582 33.8778 9.87553C33.9539 10.1152 34.0825 10.3349 34.2544 10.5185C34.4263 10.7021 34.637 10.8449 34.8712 10.9365C35.1054 11.0281 35.3572 11.0663 35.608 11.0481C35.822 11.0569 36.036 11.0296 36.241 10.9671L36.243 7.31306Z" fill="black"/>
<path d="M45.837 9.13211C45.8644 9.58358 45.7995 10.0359 45.6462 10.4614C45.493 10.887 45.2546 11.2768 44.9457 11.6072C44.6367 11.9375 44.2636 12.2014 43.8493 12.3827C43.4349 12.564 42.9879 12.659 42.5357 12.6617C42.0834 12.6645 41.6352 12.5751 41.2187 12.3989C40.8021 12.2227 40.4258 11.9635 40.1128 11.637C39.7998 11.3105 39.5566 10.9236 39.3981 10.5C39.2396 10.0764 39.1691 9.62488 39.191 9.17311C39.1644 8.71911 39.232 8.26453 39.3895 7.83789C39.547 7.41126 39.7909 7.02177 40.1061 6.69388C40.4212 6.36598 40.8007 6.10676 41.2207 5.93248C41.6408 5.7582 42.0923 5.67262 42.547 5.68111C42.9962 5.66894 43.443 5.75116 43.8584 5.92247C44.2738 6.09377 44.6487 6.35033 44.9588 6.67558C45.2689 7.00083 45.5072 7.38753 45.6585 7.81067C45.8098 8.23382 45.8706 8.684 45.837 9.13211ZM41.091 9.14711C41.091 10.3371 41.644 11.0881 42.546 11.0881C43.329 11.0881 43.921 10.4141 43.921 9.17311C43.921 8.11511 43.49 7.24511 42.466 7.24511C41.685 7.24511 41.091 7.94611 41.091 9.14711Z" fill="black"/>
<path d="M48.672 2.95801C48.78 2.95801 48.804 2.97101 48.804 3.06601V5.83001C49.1742 5.73167 49.5559 5.68324 49.939 5.68601C50.3672 5.6648 50.7952 5.73308 51.1956 5.88648C51.596 6.03989 51.9601 6.27505 52.2646 6.57698C52.569 6.8789 52.8072 7.24097 52.964 7.64008C53.1207 8.03918 53.1926 8.46658 53.175 8.89501C53.1792 9.41444 53.0752 9.92906 52.8697 10.4061C52.6641 10.8832 52.3615 11.3122 51.9812 11.666C51.6008 12.0198 51.1509 12.2905 50.6602 12.4609C50.1696 12.6314 49.6488 12.6978 49.131 12.656C48.4137 12.6611 47.6999 12.5569 47.014 12.347C46.9902 12.334 46.9701 12.3149 46.9559 12.2918C46.9417 12.2686 46.9338 12.2422 46.933 12.215V3.05201C46.933 2.98501 46.959 2.95801 47.027 2.95801H48.672ZM49.598 7.27201C49.3298 7.26856 49.0625 7.30496 48.805 7.38001V11.034C48.9688 11.0723 49.1367 11.0905 49.305 11.088C49.5715 11.1032 49.8382 11.0608 50.0869 10.9635C50.3355 10.8662 50.5602 10.7165 50.7457 10.5245C50.9312 10.3324 51.0731 10.1026 51.1617 9.85075C51.2503 9.59889 51.2834 9.33087 51.259 9.06501C51.2907 8.8339 51.2708 8.59865 51.2008 8.37614C51.1308 8.15364 51.0123 7.94939 50.854 7.77808C50.6957 7.60676 50.5014 7.47263 50.2851 7.3853C50.0688 7.29797 49.8358 7.25962 49.603 7.27301L49.598 7.27201Z" fill="black"/>
<path d="M55.804 9.65298C55.871 10.421 56.411 11.053 57.732 11.053C58.2999 11.0638 58.8641 10.9587 59.39 10.744C59.431 10.716 59.471 10.731 59.471 10.811V12.091C59.471 12.191 59.445 12.223 59.377 12.254C58.7302 12.5472 58.0235 12.6842 57.314 12.654C56.8555 12.6938 56.3939 12.6331 55.9613 12.476C55.5287 12.319 55.1357 12.0693 54.8096 11.7446C54.4836 11.4199 54.2323 11.0278 54.0735 10.5959C53.9146 10.164 53.852 9.70261 53.89 9.24398C53.8522 8.792 53.9083 8.33708 54.0549 7.90786C54.2015 7.47864 54.4354 7.08442 54.7418 6.75002C55.0482 6.41561 55.4206 6.14826 55.8354 5.96479C56.2502 5.78132 56.6984 5.68571 57.152 5.68398C57.5348 5.66992 57.9163 5.73606 58.2721 5.87816C58.6279 6.02025 58.95 6.23515 59.2178 6.50908C59.4856 6.783 59.6932 7.10989 59.8272 7.46877C59.9612 7.82764 60.0187 8.21057 59.996 8.59298C60.0054 8.8945 59.983 9.19618 59.929 9.49298C59.9273 9.52081 59.9155 9.54707 59.8958 9.56679C59.8761 9.58651 59.8498 9.59832 59.822 9.59998C59.36 9.64419 58.896 9.66222 58.432 9.65398L55.804 9.65298ZM57.557 8.34498C57.782 8.35324 58.0073 8.34455 58.231 8.31898V8.21898C58.2256 8.07405 58.1916 7.93163 58.1309 7.79989C58.0703 7.66816 57.9842 7.54972 57.8776 7.45139C57.771 7.35306 57.646 7.27678 57.5098 7.22694C57.3736 7.1771 57.2289 7.15468 57.084 7.16098C56.7568 7.15585 56.4402 7.2764 56.1992 7.4978C55.9583 7.71919 55.8115 8.02455 55.789 8.35098L57.557 8.34498Z" fill="black"/>
<path d="M11.125 0H17.648V15.619L11.125 0Z" fill="black"/>
<path d="M6.529 0H0V15.619L6.529 0Z" fill="black"/>
<path d="M8.82698 5.7561L12.983 15.6181H10.26L9.01698 12.4771H5.97498L8.82698 5.7561Z" fill="black"/>
</g>
<defs>
<clipPath id="clip0_8_71">
<rect width="60" height="15.619" fill="white"/>
</clipPath>
</defs>
</svg>
