<svg width="13" height="13" viewBox="0 0 13 13" fill="none" xmlns="http://www.w3.org/2000/svg">
<g clip-path="url(#clip0_8_62)">
<path d="M6.50002 13C6.89405 12.9656 7.26316 12.7934 7.54285 12.5137C7.82253 12.234 7.99489 11.8647 8.02935 11.4707H4.9707C5.00516 11.8647 5.17752 12.234 5.4572 12.5137C5.73689 12.7934 6.106 12.9656 6.50002 13Z" fill="black"/>
<path d="M9.99419 3.58859C9.99419 2.27338 8.77087 1.71897 7.26449 1.57445V0.383122C7.25664 0.274631 7.20637 0.17361 7.12448 0.102022C7.04258 0.0304337 6.93584 -0.00593765 6.82727 0.00079181H6.17164C6.06333 -0.00552023 5.95712 0.0310363 5.87556 0.102582C5.79399 0.174127 5.74377 0.274912 5.73591 0.383122V1.57445C4.22953 1.71821 3.00621 2.27491 3.00621 3.58859C3.00621 9.48413 1.14795 9.2188 1.14795 10.0003V10.706H11.8532V10.001C11.8532 9.17749 9.99419 9.48336 9.99419 3.58859Z" fill="black"/>
<path d="M6.50002 13C6.89405 12.9656 7.26316 12.7934 7.54285 12.5137C7.82253 12.234 7.99489 11.8647 8.02935 11.4707H4.9707C5.00516 11.8647 5.17752 12.234 5.4572 12.5137C5.73689 12.7934 6.106 12.9656 6.50002 13Z" fill="black"/>
<path d="M9.99419 3.58859C9.99419 2.27338 8.77087 1.71897 7.26449 1.57445V0.383122C7.25664 0.274631 7.20637 0.17361 7.12448 0.102022C7.04258 0.0304337 6.93584 -0.00593765 6.82727 0.00079181H6.17164C6.06333 -0.00552023 5.95712 0.0310363 5.87556 0.102582C5.79399 0.174127 5.74377 0.274912 5.73591 0.383122V1.57445C4.22953 1.71821 3.00621 2.27491 3.00621 3.58859C3.00621 9.48413 1.14795 9.2188 1.14795 10.0003V10.706H11.8532V10.001C11.8532 9.17749 9.99419 9.48336 9.99419 3.58859Z" fill="black"/>
</g>
<defs>
<clipPath id="clip0_8_62">
<rect width="13" height="13" fill="white"/>
</clipPath>
</defs>
</svg>
