<svg width="25" height="25" viewBox="0 0 25 25" fill="none" xmlns="http://www.w3.org/2000/svg">
<path d="M7.36999 11.22C6.63999 11.22 5.94999 10.94 5.43999 10.42C5.18513 10.1676 4.98311 9.86689 4.84575 9.53551C4.7084 9.20414 4.63845 8.84871 4.63999 8.49C4.63999 6.98 5.86999 5.75 7.36999 5.75C8.86999 5.75 10.1 6.98 10.1 8.48C10.1 9.21 9.81999 9.9 9.29999 10.41C8.77999 10.92 8.09999 11.21 7.36999 11.21V11.22ZM6.19999 8.49C6.19999 8.8 6.31999 9.1 6.53999 9.32C6.70383 9.48422 6.91275 9.59609 7.14025 9.6414C7.36775 9.68672 7.60359 9.66344 7.81785 9.57452C8.0321 9.48561 8.21512 9.33506 8.34369 9.14197C8.47226 8.94889 8.54058 8.72197 8.53999 8.49C8.53999 7.84 8.00999 7.32 7.36999 7.32C6.72999 7.32 6.19999 7.85 6.19999 8.49Z" fill="black" fill-opacity="0.6"/>
<path d="M6.98 18.1C6.83 18.1 6.68 18.06 6.55 17.97C6.46439 17.9137 6.39076 17.8411 6.33333 17.7563C6.2759 17.6715 6.2358 17.5761 6.21536 17.4758C6.19491 17.3754 6.19451 17.272 6.21419 17.1714C6.23386 17.0709 6.27322 16.9753 6.33 16.89L9.32 12.41C9.32 12.41 9.4 12.3 9.41 12.28C9.68 11.94 10.07 11.73 10.51 11.68C10.95 11.63 11.38 11.76 11.73 12.03L12.53 12.67L14.39 10.01C14.5755 9.74511 14.834 9.53982 15.134 9.4191C15.4341 9.29838 15.7627 9.26743 16.08 9.33001C16.52 9.42001 16.89 9.67001 17.14 10.04L21.69 16.87C21.93 17.23 21.83 17.71 21.47 17.95C21.11 18.19 20.63 18.09 20.39 17.73L15.84 10.9L15.71 10.87L13.35 14.24C13.23 14.42 13.03 14.54 12.82 14.57C12.7144 14.5841 12.607 14.5772 12.5041 14.5498C12.4011 14.5223 12.3046 14.4748 12.22 14.41L10.77 13.24C10.77 13.24 10.63 13.26 10.63 13.27L7.65 17.75C7.5 17.98 7.25 18.1 7 18.1H6.98Z" fill="black" fill-opacity="0.6"/>
<path d="M22.66 22.27H2.34C1.05 22.27 0 21.21 0 19.92V4.34C0 3.05 1.05 2 2.34 2H19.65C20.28 2 20.89 2.26 21.33 2.71L24.33 5.79C24.76 6.23 25 6.81 25 7.42V19.92C25 21.21 23.95 22.26 22.66 22.26V22.27ZM2.34 3.56C1.91 3.56 1.56 3.91 1.56 4.34V19.92C1.56 20.35 1.91 20.7 2.34 20.7H22.65C23.08 20.7 23.43 20.35 23.43 19.92V7.42C23.43 7.22 23.35 7.02 23.21 6.88L20.21 3.8C20.1365 3.72659 20.0491 3.66848 19.953 3.629C19.8569 3.58952 19.7539 3.56947 19.65 3.57H2.34V3.56Z" fill="black" fill-opacity="0.6"/>
</svg>
